<svg fill = "#E50019" id="Layer" enable-background="new 0 0 512 512" height="512" viewBox="0 0 512 512" width="512" xmlns="http://www.w3.org/2000/svg"><path d="m189 248h134c11.598 0 21-9.402 21-21v-14c0-2.761-2.239-5-5-5h-166c-2.761 0-5 2.239-5 5v14c0 11.598 9.402 21 21 21z"/><path d="m392 213v14c0 38.108-30.892 69-69 69h-134c-38.108 0-69-30.892-69-69v-14c0-2.761-2.239-5-5-5h-86c-2.761 0-5 2.239-5 5v155c0 79.529 64.471 144 144 144h176c79.529 0 144-64.471 144-144v-155c0-2.761-2.239-5-5-5h-86c-2.761 0-5 2.239-5 5zm-135.98 155c-13.254 0-24.005-10.745-24.005-24s10.74-24 23.995-24h.01c13.255 0 24 10.745 24 24s-10.746 24-24 24z"/><path d="m488 155v-11c0-79.529-64.471-144-144-144h-176c-79.529 0-144 64.471-144 144v11c0 2.761 2.239 5 5 5h454c2.761 0 5-2.239 5-5z"/></svg>